<?xml version="1.0" standalone="no"?><!DOCTYPE svg PUBLIC "-//W3C//DTD SVG 1.1//EN" "http://www.w3.org/Graphics/SVG/1.1/DTD/svg11.dtd"><svg t="1597063984807" class="icon" viewBox="0 0 1024 1024" version="1.1" xmlns="http://www.w3.org/2000/svg" p-id="2748" width="32" height="32" xmlns:xlink="http://www.w3.org/1999/xlink"><defs><style type="text/css"></style></defs><path d="M958.969052 857.548765H703.643854c-17.594845 0-31.890657-14.295812-31.890657-31.890657 0-17.594845 14.295812-31.890657 31.890657-31.890657h255.325198c17.594845 0 31.890657 14.295812 31.890657 31.890657 0 17.594845-14.295812 31.890657-31.890657 31.890657z m0 0" p-id="2749" fill="#ffffff"></path><path d="M831.306453 985.111393c-17.594845 0-31.890657-14.295812-31.890657-31.890657V698.09548c0-17.594845 14.295812-31.890657 31.890657-31.890657 17.594845 0 31.890657 14.295812 31.890657 31.890657v255.125256c0 17.594845-14.295812 31.890657-31.890657 31.890657z m-332.90247-404.881382c-160.552963 0-291.114712-130.161867-291.114712-290.115006S337.85102 0 498.403983 0C658.956946 0.099971 789.518696 130.261837 789.518696 290.115005c0 159.953139-130.561749 290.115005-291.114713 290.115006z m0-516.348726c-125.263302 0-227.233428 101.470272-227.233427 226.23372 0 124.763448 101.970126 226.233721 227.233427 226.233721 125.263302 0 227.233428-101.470272 227.233428-226.233721 0-124.663477-101.870155-226.233721-227.233428-226.23372z m0 0" p-id="2750" fill="#ffffff"></path><path d="M744.531875 614.120082c-6.098213 0-12.196427-1.699502-17.294933-5.098506-31.590745-20.493996-65.780728-36.58928-101.670214-47.985942-11.096749-3.199063-19.594259-12.196427-22.193498-23.493117-2.599239-11.29669 1.199649-23.093234 9.79713-30.89095 8.597481-7.797716 20.793908-10.197013 31.690716-6.498096 41.087963 12.996193 80.476423 31.590745 116.965733 55.183833 11.896515 7.697745 17.294933 22.293469 13.296104 35.789514-3.998828 13.695988-16.495167 22.993264-30.591038 22.993264zM33.340232 1021.400761c-17.594845 0-31.890657-14.295812-31.890657-31.890657 0-226.233721 140.858733-422.876111 350.597286-489.356633 16.79508-5.298448 34.789808 3.998828 40.088256 20.793908 5.298448 16.79508-3.998828 34.789808-20.793908 40.088255-183.046373 57.983013-306.010349 230.232549-306.010349 428.47447-0.099971 17.694816-14.395782 31.890657-31.990628 31.890657z m0 0" p-id="2751" fill="#ffffff"></path></svg>